# xmcd
#
# Track frame offsets:
#	150
#	28551
#	49130
#	71872
#	117947
#	177961
#
# Disc length: 2845 seconds
# Revision: 0
# Processed by: cddbd v1.5.2PL0 Copyright (c) Steve Scherf et al.
# Submitted via: dBpowerAMP V12.0
#
DISCID=500b1b06
DTITLE=King King - Live
DYEAR=2016
DGENRE=Blues
TTITLE0=You Stopped the Rain
TTITLE1=Jealousy
TTITLE2=Crazy
TTITLE3=All Your Life
TTITLE4=Stranger to Love
TTITLE5=Let Love In
EXTD=
EXTT0=
EXTT1=
EXTT2=
EXTT3=
EXTT4=
EXTT5=
PLAYORDER=
